<svg xmlns="http://www.w3.org/2000/svg" viewBox="0 0 960 680" width="960" height="680" font-family="'Courier New', monospace">
  <defs>
    <style>
      text { font-family: 'Courier New', monospace; }
      .title { font-size: 15px; font-weight: bold; fill: #e2e8f0; letter-spacing: 2px; }
      .label { font-size: 10px; fill: #94a3b8; }
      .label-bright { font-size: 10px; fill: #cbd5e1; }
      .label-sm { font-size: 9px; fill: #64748b; }
      .ch-label { font-size: 11px; font-weight: bold; }
      .mono { font-size: 9px; fill: #7dd3fc; font-family: 'Courier New', monospace; }
      .shape-text { font-size: 12px; fill: #38bdf8; font-family: 'Courier New', monospace; }
      .env-text { font-size: 9.5px; fill: #94a3b8; }
    </style>
    <filter id="glow">
      <feGaussianBlur stdDeviation="2" result="blur"/>
      <feMerge><feMergeNode in="blur"/><feMergeNode in="SourceGraphic"/></feMerge>
    </filter>
    <filter id="glow-strong">
      <feGaussianBlur stdDeviation="3.5" result="blur"/>
      <feMerge><feMergeNode in="blur"/><feMergeNode in="SourceGraphic"/></feMerge>
    </filter>
  </defs>

  <!-- Background -->
  <rect width="960" height="680" fill="#0b0f1a"/>
  <rect width="960" height="680" fill="url(#bg-grid)" opacity="0.03"/>

  <!-- Subtle grid pattern -->
  <defs>
    <pattern id="bg-grid" width="40" height="40" patternUnits="userSpaceOnUse">
      <path d="M 40 0 L 0 0 0 40" fill="none" stroke="#334155" stroke-width="0.5"/>
    </pattern>
  </defs>
  <rect width="960" height="680" fill="url(#bg-grid)" opacity="0.15"/>

  <!-- Title -->
  <text x="480" y="38" text-anchor="middle" class="title" font-size="17" fill="#f1f5f9" letter-spacing="4">MAPOX · OBSERVATION SPACE</text>
  <text x="480" y="54" text-anchor="middle" class="label" font-size="10" fill="#475569" letter-spacing="2">MULTI-AGENT JAX ENVIRONMENT</text>
  <line x1="200" y1="62" x2="760" y2="62" stroke="#1e293b" stroke-width="1"/>

  <!-- ══════════════════════════════ -->
  <!-- LEFT: 11×11 EGOCENTRIC GRID   -->
  <!-- ══════════════════════════════ -->

  <!-- Section label -->
  <text x="142" y="87" text-anchor="middle" class="label" fill="#475569" letter-spacing="2" font-size="9">EGOCENTRIC VIEW</text>

  <!-- Sample tile color map for the grid (11x11 = 121 cells, 14px each) -->
  <!-- We'll paint a sample scene -->

  <g transform="translate(30, 95)">
    <!-- Grid border glow -->
    <rect x="-2" y="-2" width="228" height="228" rx="3" fill="none" stroke="#1e40af" stroke-width="1" opacity="0.5" filter="url(#glow)"/>

    <!-- Define tile colors -->
    <!-- 0=EMPTY #1e293b, 1=WALL #334155, 2=DEST_WALL #92400e, 3=FLAG #fbbf24, 4=FLAG_UNLOCK #fde68a -->
    <!-- 5=GENERIC #60a5fa, 6=SCOUT #34d399, 7=HARVEST #a78bfa, 8=KNIGHT #f87171, 9=ARCHER #fb923c -->
    <!-- 10-13=DECOR #1e3a5f, 14=ARROW #e2e8f0 -->

    <!-- Row 0 -->
    <rect x="0"   y="0"   width="20" height="20" fill="#334155"/><rect x="20"  y="0"   width="20" height="20" fill="#334155"/>
    <rect x="40"  y="0"   width="20" height="20" fill="#334155"/><rect x="60"  y="0"   width="20" height="20" fill="#334155"/>
    <rect x="80"  y="0"   width="20" height="20" fill="#334155"/><rect x="100" y="0"   width="20" height="20" fill="#334155"/>
    <rect x="120" y="0"   width="20" height="20" fill="#334155"/><rect x="140" y="0"   width="20" height="20" fill="#334155"/>
    <rect x="160" y="0"   width="20" height="20" fill="#334155"/><rect x="180" y="0"   width="20" height="20" fill="#334155"/>
    <rect x="200" y="0"   width="20" height="20" fill="#334155"/>
    <!-- Row 1 -->
    <rect x="0"   y="20"  width="20" height="20" fill="#334155"/><rect x="20"  y="20"  width="20" height="20" fill="#1e293b"/>
    <rect x="40"  y="20"  width="20" height="20" fill="#1e293b"/><rect x="60"  y="20"  width="20" height="20" fill="#1e293b"/>
    <rect x="80"  y="20"  width="20" height="20" fill="#92400e"/><rect x="100" y="20"  width="20" height="20" fill="#1e293b"/>
    <rect x="120" y="20"  width="20" height="20" fill="#1e293b"/><rect x="140" y="20"  width="20" height="20" fill="#1e293b"/>
    <rect x="160" y="20"  width="20" height="20" fill="#1e293b"/><rect x="180" y="20"  width="20" height="20" fill="#1e293b"/>
    <rect x="200" y="20"  width="20" height="20" fill="#334155"/>
    <!-- Row 2 -->
    <rect x="0"   y="40"  width="20" height="20" fill="#334155"/><rect x="20"  y="40"  width="20" height="20" fill="#1e293b"/>
    <rect x="40"  y="40"  width="20" height="20" fill="#1e293b"/><rect x="60"  y="40"  width="20" height="20" fill="#334155"/>
    <rect x="80"  y="40"  width="20" height="20" fill="#334155"/><rect x="100" y="40"  width="20" height="20" fill="#334155"/>
    <rect x="120" y="40"  width="20" height="20" fill="#1e293b"/><rect x="140" y="40"  width="20" height="20" fill="#1e293b"/>
    <rect x="160" y="40"  width="20" height="20" fill="#34d399" opacity="0.8"/><rect x="180" y="40"  width="20" height="20" fill="#1e293b"/>
    <rect x="200" y="40"  width="20" height="20" fill="#334155"/>
    <!-- Row 3 -->
    <rect x="0"   y="60"  width="20" height="20" fill="#334155"/><rect x="20"  y="60"  width="20" height="20" fill="#1e293b"/>
    <rect x="40"  y="60"  width="20" height="20" fill="#1e293b"/><rect x="60"  y="60"  width="20" height="20" fill="#1e293b"/>
    <rect x="80"  y="60"  width="20" height="20" fill="#1e293b"/><rect x="100" y="60"  width="20" height="20" fill="#1e293b"/>
    <rect x="120" y="60"  width="20" height="20" fill="#334155"/><rect x="140" y="60"  width="20" height="20" fill="#1e293b"/>
    <rect x="160" y="60"  width="20" height="20" fill="#1e293b"/><rect x="180" y="60"  width="20" height="20" fill="#1e293b"/>
    <rect x="200" y="60"  width="20" height="20" fill="#334155"/>
    <!-- Row 4 -->
    <rect x="0"   y="80"  width="20" height="20" fill="#334155"/><rect x="20"  y="80"  width="20" height="20" fill="#1e293b"/>
    <rect x="40"  y="80"  width="20" height="20" fill="#f87171" opacity="0.85"/><rect x="60"  y="80"  width="20" height="20" fill="#1e293b"/>
    <rect x="80"  y="80"  width="20" height="20" fill="#1e293b"/><rect x="100" y="80"  width="20" height="20" fill="#fbbf24" opacity="0.9"/>
    <rect x="120" y="80"  width="20" height="20" fill="#1e293b"/><rect x="140" y="80"  width="20" height="20" fill="#e2e8f0" opacity="0.6"/>
    <rect x="160" y="80"  width="20" height="20" fill="#1e293b"/><rect x="180" y="80"  width="20" height="20" fill="#1e293b"/>
    <rect x="200" y="80"  width="20" height="20" fill="#334155"/>
    <!-- Row 5 (CENTER ROW) -->
    <rect x="0"   y="100" width="20" height="20" fill="#334155"/><rect x="20"  y="100" width="20" height="20" fill="#1e293b"/>
    <rect x="40"  y="100" width="20" height="20" fill="#1e293b"/><rect x="60"  y="100" width="20" height="20" fill="#1e293b"/>
    <rect x="80"  y="100" width="20" height="20" fill="#334155"/><rect x="100" y="100" width="20" height="20" fill="#60a5fa"/><!-- AGENT CENTER -->
    <rect x="120" y="100" width="20" height="20" fill="#1e293b"/><rect x="140" y="100" width="20" height="20" fill="#1e293b"/>
    <rect x="160" y="100" width="20" height="20" fill="#1e293b"/><rect x="180" y="100" width="20" height="20" fill="#92400e"/>
    <rect x="200" y="100" width="20" height="20" fill="#334155"/>
    <!-- Row 6 -->
    <rect x="0"   y="120" width="20" height="20" fill="#334155"/><rect x="20"  y="120" width="20" height="20" fill="#1e293b"/>
    <rect x="40"  y="120" width="20" height="20" fill="#1e293b"/><rect x="60"  y="120" width="20" height="20" fill="#a78bfa" opacity="0.85"/>
    <rect x="80"  y="120" width="20" height="20" fill="#1e293b"/><rect x="100" y="120" width="20" height="20" fill="#1e293b"/>
    <rect x="120" y="120" width="20" height="20" fill="#1e293b"/><rect x="140" y="120" width="20" height="20" fill="#1e293b"/>
    <rect x="160" y="120" width="20" height="20" fill="#334155"/><rect x="180" y="120" width="20" height="20" fill="#1e293b"/>
    <rect x="200" y="120" width="20" height="20" fill="#334155"/>
    <!-- Row 7 -->
    <rect x="0"   y="140" width="20" height="20" fill="#334155"/><rect x="20"  y="140" width="20" height="20" fill="#1e293b"/>
    <rect x="40"  y="140" width="20" height="20" fill="#1e293b"/><rect x="60"  y="140" width="20" height="20" fill="#1e293b"/>
    <rect x="80"  y="140" width="20" height="20" fill="#1e293b"/><rect x="100" y="140" width="20" height="20" fill="#1e293b"/>
    <rect x="120" y="140" width="20" height="20" fill="#1e3a5f"/><rect x="140" y="140" width="20" height="20" fill="#1e3a5f"/>
    <rect x="160" y="140" width="20" height="20" fill="#1e293b"/><rect x="180" y="140" width="20" height="20" fill="#fb923c" opacity="0.85"/>
    <rect x="200" y="140" width="20" height="20" fill="#334155"/>
    <!-- Row 8 -->
    <rect x="0"   y="160" width="20" height="20" fill="#334155"/><rect x="20"  y="160" width="20" height="20" fill="#1e293b"/>
    <rect x="40"  y="160" width="20" height="20" fill="#334155"/><rect x="60"  y="160" width="20" height="20" fill="#1e293b"/>
    <rect x="80"  y="160" width="20" height="20" fill="#1e293b"/><rect x="100" y="160" width="20" height="20" fill="#1e293b"/>
    <rect x="120" y="160" width="20" height="20" fill="#1e293b"/><rect x="140" y="160" width="20" height="20" fill="#1e293b"/>
    <rect x="160" y="160" width="20" height="20" fill="#1e293b"/><rect x="180" y="160" width="20" height="20" fill="#1e293b"/>
    <rect x="200" y="160" width="20" height="20" fill="#334155"/>
    <!-- Row 9 -->
    <rect x="0"   y="180" width="20" height="20" fill="#334155"/><rect x="20"  y="180" width="20" height="20" fill="#1e293b"/>
    <rect x="40"  y="180" width="20" height="20" fill="#1e293b"/><rect x="60"  y="180" width="20" height="20" fill="#1e293b"/>
    <rect x="80"  y="180" width="20" height="20" fill="#fde68a" opacity="0.8"/><rect x="100" y="180" width="20" height="20" fill="#1e293b"/>
    <rect x="120" y="180" width="20" height="20" fill="#1e293b"/><rect x="140" y="180" width="20" height="20" fill="#334155"/>
    <rect x="160" y="180" width="20" height="20" fill="#334155"/><rect x="180" y="180" width="20" height="20" fill="#1e293b"/>
    <rect x="200" y="180" width="20" height="20" fill="#334155"/>
    <!-- Row 10 -->
    <rect x="0"   y="200" width="20" height="20" fill="#334155"/><rect x="20"  y="200" width="20" height="20" fill="#334155"/>
    <rect x="40"  y="200" width="20" height="20" fill="#334155"/><rect x="60"  y="200" width="20" height="20" fill="#334155"/>
    <rect x="80"  y="200" width="20" height="20" fill="#334155"/><rect x="100" y="200" width="20" height="20" fill="#334155"/>
    <rect x="120" y="200" width="20" height="20" fill="#334155"/><rect x="140" y="200" width="20" height="20" fill="#334155"/>
    <rect x="160" y="200" width="20" height="20" fill="#334155"/><rect x="180" y="200" width="20" height="20" fill="#334155"/>
    <rect x="200" y="200" width="20" height="20" fill="#334155"/>

    <!-- Grid lines -->
    <g stroke="#0f172a" stroke-width="0.8" opacity="0.8">
      <line x1="20" y1="0" x2="20" y2="220"/><line x1="40" y1="0" x2="40" y2="220"/>
      <line x1="60" y1="0" x2="60" y2="220"/><line x1="80" y1="0" x2="80" y2="220"/>
      <line x1="100" y1="0" x2="100" y2="220"/><line x1="120" y1="0" x2="120" y2="220"/>
      <line x1="140" y1="0" x2="140" y2="220"/><line x1="160" y1="0" x2="160" y2="220"/>
      <line x1="180" y1="0" x2="180" y2="220"/><line x1="200" y1="0" x2="200" y2="220"/>
      <line x1="0" y1="20" x2="220" y2="20"/><line x1="0" y1="40" x2="220" y2="40"/>
      <line x1="0" y1="60" x2="220" y2="60"/><line x1="0" y1="80" x2="220" y2="80"/>
      <line x1="0" y1="100" x2="220" y2="100"/><line x1="0" y1="120" x2="220" y2="120"/>
      <line x1="0" y1="140" x2="220" y2="140"/><line x1="0" y1="160" x2="220" y2="160"/>
      <line x1="0" y1="180" x2="220" y2="180"/><line x1="0" y1="200" x2="220" y2="200"/>
    </g>

    <!-- Border -->
    <rect x="0" y="0" width="220" height="220" fill="none" stroke="#334155" stroke-width="1.5"/>

    <!-- Agent marker at center (5,5) = pixel (100,100) -->
    <circle cx="110" cy="110" r="7" fill="none" stroke="#38bdf8" stroke-width="1.5" filter="url(#glow)"/>
    <text x="110" y="114" text-anchor="middle" font-size="9" fill="#38bdf8" font-weight="bold">★</text>

    <!-- Axis labels -->
    <text x="110" y="238" text-anchor="middle" class="label" font-size="9" fill="#475569">width (11)</text>
    <text x="-14" y="115" text-anchor="middle" class="label" font-size="9" fill="#475569" transform="rotate(-90, -14, 115)">height (11)</text>
  </g>

  <!-- Grid size label -->
  <text x="142" y="332" text-anchor="middle" class="label" fill="#475569" font-size="9">11 × 11 tiles · agent (★) at center</text>

  <!-- ══════════════════════════════ -->
  <!-- ARROW from grid to channels   -->
  <!-- ══════════════════════════════ -->
  <text x="295" y="210" text-anchor="middle" fill="#1e3a5f" font-size="22">→</text>
  <text x="295" y="222" text-anchor="middle" fill="#334155" font-size="8">× 4 ch</text>

  <!-- ══════════════════════════════════════════ -->
  <!-- FOUR CHANNEL BOXES                         -->
  <!-- ══════════════════════════════════════════ -->

  <!-- CH 0 — TILE TYPE -->
  <g transform="translate(320, 75)">
    <rect x="0" y="0" width="300" height="148" rx="4" fill="#0f172a" stroke="#1d4ed8" stroke-width="1.2"/>
    <rect x="0" y="0" width="300" height="26" rx="4" fill="#1d4ed8" opacity="0.25"/>
    <rect x="0" y="22" width="300" height="4" fill="#1d4ed8" opacity="0.15"/>
    <text x="10" y="17" class="ch-label" fill="#93c5fd" font-size="11">CH 0</text>
    <text x="50" y="17" class="ch-label" fill="#e2e8f0" font-size="11">TILE TYPE</text>
    <text x="242" y="17" class="label-sm" fill="#3b82f6" font-size="9">int8 · 0–14</text>

    <!-- Terrain row -->
    <text x="10" y="42" class="label-sm" fill="#475569" font-size="8" letter-spacing="1">TERRAIN</text>
    <!-- swatches -->
    <rect x="10"  y="47" width="12" height="12" rx="1" fill="#1e293b" stroke="#334155" stroke-width="0.8"/>
    <text x="25"  y="57" class="label-sm" fill="#64748b" font-size="8">EMPTY</text>
    <rect x="72"  y="47" width="12" height="12" rx="1" fill="#334155"/>
    <text x="87"  y="57" class="label-sm" fill="#64748b" font-size="8">WALL</text>
    <rect x="122" y="47" width="12" height="12" rx="1" fill="#92400e"/>
    <text x="137" y="57" class="label-sm" fill="#64748b" font-size="8">DEST.</text>
    <rect x="170" y="47" width="12" height="12" rx="1" fill="#fbbf24"/>
    <text x="185" y="57" class="label-sm" fill="#64748b" font-size="8">FLAG</text>
    <rect x="218" y="47" width="12" height="12" rx="1" fill="#fde68a"/>
    <text x="233" y="57" class="label-sm" fill="#64748b" font-size="8">FLAG_UNL</text>

    <!-- Agent row -->
    <text x="10" y="75" class="label-sm" fill="#475569" font-size="8" letter-spacing="1">AGENTS</text>
    <rect x="10"  y="80" width="12" height="12" rx="1" fill="#60a5fa"/>
    <text x="25"  y="90" class="label-sm" fill="#64748b" font-size="8">GENERIC</text>
    <rect x="80"  y="80" width="12" height="12" rx="1" fill="#34d399"/>
    <text x="95"  y="90" class="label-sm" fill="#64748b" font-size="8">SCOUT</text>
    <rect x="140" y="80" width="12" height="12" rx="1" fill="#a78bfa"/>
    <text x="155" y="90" class="label-sm" fill="#64748b" font-size="8">HARVESTER</text>
    <rect x="222" y="80" width="12" height="12" rx="1" fill="#f87171"/>
    <text x="237" y="90" class="label-sm" fill="#64748b" font-size="8">KNIGHT</text>

    <rect x="10"  y="98" width="12" height="12" rx="1" fill="#fb923c"/>
    <text x="25"  y="108" class="label-sm" fill="#64748b" font-size="8">ARCHER</text>
    <rect x="80"  y="98" width="12" height="12" rx="1" fill="#1e3a5f"/>
    <text x="95"  y="108" class="label-sm" fill="#64748b" font-size="8">DECOR ×4</text>

    <!-- Projectile -->
    <text x="10" y="129" class="label-sm" fill="#475569" font-size="8" letter-spacing="1">PROJECTILE</text>
    <rect x="10" y="134" width="12" height="12" rx="1" fill="#cbd5e1" opacity="0.7"/>
    <text x="25" y="144" class="label-sm" fill="#64748b" font-size="8">ARROW  (14)</text>
  </g>

  <!-- CH 1 — DIRECTION -->
  <g transform="translate(320, 233)">
    <rect x="0" y="0" width="300" height="68" rx="4" fill="#0f172a" stroke="#7c3aed" stroke-width="1.2"/>
    <rect x="0" y="0" width="300" height="26" rx="4" fill="#7c3aed" opacity="0.2"/>
    <rect x="0" y="22" width="300" height="4" fill="#7c3aed" opacity="0.12"/>
    <text x="10" y="17" class="ch-label" fill="#c4b5fd" font-size="11">CH 1</text>
    <text x="50" y="17" class="ch-label" fill="#e2e8f0" font-size="11">DIRECTION</text>
    <text x="233" y="17" class="label-sm" fill="#7c3aed" font-size="9">int8 · 0–4</text>

    <!-- Direction values with arrows -->
    <text x="14"  y="48" text-anchor="middle" font-size="13" fill="#475569">·</text>
    <text x="25"  y="52" class="label-sm" fill="#64748b" font-size="9">none</text>
    <text x="71"  y="50" text-anchor="middle" font-size="14" fill="#a78bfa">↑</text>
    <text x="82"  y="52" class="label-sm" fill="#64748b" font-size="9">up</text>
    <text x="121" y="50" text-anchor="middle" font-size="14" fill="#a78bfa">→</text>
    <text x="132" y="52" class="label-sm" fill="#64748b" font-size="9">right</text>
    <text x="183" y="50" text-anchor="middle" font-size="14" fill="#a78bfa">↓</text>
    <text x="194" y="52" class="label-sm" fill="#64748b" font-size="9">down</text>
    <text x="242" y="50" text-anchor="middle" font-size="14" fill="#a78bfa">←</text>
    <text x="253" y="52" class="label-sm" fill="#64748b" font-size="9">left</text>

    <text x="10"  y="64" class="label-sm" fill="#3b1e6e" font-size="8">0</text>
    <text x="67"  y="64" class="label-sm" fill="#3b1e6e" font-size="8">1</text>
    <text x="117" y="64" class="label-sm" fill="#3b1e6e" font-size="8">2</text>
    <text x="179" y="64" class="label-sm" fill="#3b1e6e" font-size="8">3</text>
    <text x="238" y="64" class="label-sm" fill="#3b1e6e" font-size="8">4</text>
  </g>

  <!-- CH 2 — TEAM -->
  <g transform="translate(320, 311)">
    <rect x="0" y="0" width="300" height="68" rx="4" fill="#0f172a" stroke="#0f766e" stroke-width="1.2"/>
    <rect x="0" y="0" width="300" height="26" rx="4" fill="#0f766e" opacity="0.2"/>
    <rect x="0" y="22" width="300" height="4" fill="#0f766e" opacity="0.12"/>
    <text x="10" y="17" class="ch-label" fill="#5eead4" font-size="11">CH 2</text>
    <text x="50" y="17" class="ch-label" fill="#e2e8f0" font-size="11">TEAM</text>
    <text x="241" y="17" class="label-sm" fill="#0f766e" font-size="9">int8 · 0–2</text>

    <rect x="10"  y="34" width="18" height="18" rx="2" fill="#1e293b" stroke="#334155" stroke-width="1"/>
    <text x="19"  y="47" text-anchor="middle" class="label-sm" fill="#475569" font-size="9">·</text>
    <text x="32"  y="49" class="label-sm" fill="#64748b" font-size="9">none  (0)</text>

    <rect x="110" y="34" width="18" height="18" rx="2" fill="#dc2626" opacity="0.8"/>
    <text x="132" y="49" class="label-sm" fill="#64748b" font-size="9">red   (1)</text>

    <rect x="200" y="34" width="18" height="18" rx="2" fill="#2563eb" opacity="0.8"/>
    <text x="222" y="49" class="label-sm" fill="#64748b" font-size="9">blue  (2)</text>

    <text x="10" y="64" class="label-sm" fill="#134e4a" font-size="8">agent faction membership</text>
  </g>

  <!-- CH 3 — HEALTH -->
  <g transform="translate(320, 389)">
    <rect x="0" y="0" width="300" height="68" rx="4" fill="#0f172a" stroke="#b45309" stroke-width="1.2"/>
    <rect x="0" y="0" width="300" height="26" rx="4" fill="#b45309" opacity="0.2"/>
    <rect x="0" y="22" width="300" height="4" fill="#b45309" opacity="0.12"/>
    <text x="10" y="17" class="ch-label" fill="#fcd34d" font-size="11">CH 3</text>
    <text x="50" y="17" class="ch-label" fill="#e2e8f0" font-size="11">HEALTH</text>
    <text x="241" y="17" class="label-sm" fill="#b45309" font-size="9">int8 · 0–2</text>

    <!-- Health bars -->
    <rect x="10"  y="34" width="18" height="18" rx="2" fill="#1e293b" stroke="#334155" stroke-width="1"/>
    <text x="32"  y="49" class="label-sm" fill="#64748b" font-size="9">none  (0)</text>

    <rect x="110" y="34" width="18" height="18" rx="2" fill="#1e293b" stroke="#334155" stroke-width="0.5"/>
    <rect x="111" y="41" width="6"  height="10" rx="1" fill="#f87171"/>
    <text x="132" y="49" class="label-sm" fill="#64748b" font-size="9">low   (1)</text>

    <rect x="200" y="34" width="18" height="18" rx="2" fill="#1e293b" stroke="#334155" stroke-width="0.5"/>
    <rect x="201" y="35" width="16" height="16" rx="1" fill="#4ade80" opacity="0.7"/>
    <text x="222" y="49" class="label-sm" fill="#64748b" font-size="9">full  (2)</text>

    <text x="10" y="64" class="label-sm" fill="#78350f" font-size="8">agent hit points</text>
  </g>

  <!-- ══════════════════════════════════════ -->
  <!-- BATCHED SHAPE BOX                      -->
  <!-- ══════════════════════════════════════ -->
  <g transform="translate(320, 475)">
    <rect x="0" y="0" width="300" height="46" rx="4" fill="#0c1628" stroke="#1e40af" stroke-width="1"/>
    <text x="150" y="16" text-anchor="middle" class="label-sm" fill="#3b5998" font-size="8" letter-spacing="2">TENSOR SHAPE</text>
    <text x="150" y="38" text-anchor="middle" font-family="'Courier New', monospace" font-size="14" fill="#38bdf8" filter="url(#glow)">(num_agents, 11, 11, 4)  ·  jnp.int8</text>
  </g>

  <!-- ══════════════════════════════════════ -->
  <!-- ENVIRONMENT USAGE TABLE               -->
  <!-- ══════════════════════════════════════ -->
  <g transform="translate(650, 75)">
    <!-- header -->
    <rect x="0" y="0" width="280" height="24" rx="3" fill="#0f172a" stroke="#1e293b" stroke-width="1"/>
    <text x="8"   y="16" class="label-sm" fill="#475569" font-size="9" letter-spacing="1">ENVIRONMENT</text>
    <text x="146" y="16" text-anchor="middle" class="label-sm" fill="#1d4ed8" font-size="9">CH0</text>
    <text x="178" y="16" text-anchor="middle" class="label-sm" fill="#7c3aed" font-size="9">CH1</text>
    <text x="210" y="16" text-anchor="middle" class="label-sm" fill="#0f766e" font-size="9">CH2</text>
    <text x="242" y="16" text-anchor="middle" class="label-sm" fill="#b45309" font-size="9">CH3</text>
    <text x="270" y="16" text-anchor="middle" class="label-sm" fill="#475569" font-size="8">NOTE</text>

    <!-- Row: king_hill -->
    <rect x="0" y="26" width="280" height="22" rx="0" fill="#0a1628" stroke="#1e293b" stroke-width="0.5"/>
    <text x="8"   y="41" class="env-text" fill="#cbd5e1">king_hill</text>
    <text x="146" y="41" text-anchor="middle" font-size="12" fill="#3b82f6">✓</text>
    <text x="178" y="41" text-anchor="middle" font-size="12" fill="#8b5cf6">✓</text>
    <text x="210" y="41" text-anchor="middle" font-size="12" fill="#14b8a6">✓</text>
    <text x="242" y="41" text-anchor="middle" font-size="12" fill="#f59e0b">✓</text>
    <text x="268" y="41" text-anchor="middle" class="label-sm" fill="#475569" font-size="8">all 4</text>

    <!-- Row: scouts -->
    <rect x="0" y="48" width="280" height="22" rx="0" fill="#0b0f1a" stroke="#1e293b" stroke-width="0.5"/>
    <text x="8"   y="63" class="env-text" fill="#94a3b8">scouts</text>
    <text x="146" y="63" text-anchor="middle" font-size="12" fill="#3b82f6">✓</text>
    <text x="178" y="63" text-anchor="middle" font-size="10" fill="#1e293b">—</text>
    <text x="210" y="63" text-anchor="middle" font-size="10" fill="#1e293b">—</text>
    <text x="242" y="63" text-anchor="middle" font-size="10" fill="#1e293b">—</text>
    <text x="268" y="63" text-anchor="middle" class="label-sm" fill="#334155" font-size="8">tiles only</text>

    <!-- Row: find_return -->
    <rect x="0" y="70" width="280" height="22" rx="0" fill="#0a1628" stroke="#1e293b" stroke-width="0.5"/>
    <text x="8"   y="85" class="env-text" fill="#94a3b8">find_return</text>
    <text x="146" y="85" text-anchor="middle" font-size="12" fill="#3b82f6">✓</text>
    <text x="178" y="85" text-anchor="middle" font-size="10" fill="#1e293b">—</text>
    <text x="210" y="85" text-anchor="middle" font-size="10" fill="#1e293b">—</text>
    <text x="242" y="85" text-anchor="middle" font-size="10" fill="#1e293b">—</text>
    <text x="268" y="85" text-anchor="middle" class="label-sm" fill="#334155" font-size="8">tiles only</text>

    <!-- Row: traveling_salesman -->
    <rect x="0" y="92" width="280" height="22" rx="0" fill="#0b0f1a" stroke="#1e293b" stroke-width="0.5"/>
    <text x="8"   y="107" class="env-text" fill="#94a3b8">traveling_salesman</text>
    <text x="146" y="107" text-anchor="middle" font-size="12" fill="#3b82f6">✓</text>
    <text x="178" y="107" text-anchor="middle" font-size="10" fill="#1e293b">—</text>
    <text x="210" y="107" text-anchor="middle" font-size="10" fill="#1e293b">—</text>
    <text x="242" y="107" text-anchor="middle" font-size="10" fill="#1e293b">—</text>
    <text x="268" y="107" text-anchor="middle" class="label-sm" fill="#334155" font-size="8">tiles only</text>

    <rect x="0" y="26" width="280" height="88" fill="none" stroke="#1e293b" stroke-width="1" rx="3"/>
  </g>

  <!-- LEGEND for tile swatches -->
  <g transform="translate(650, 220)">
    <text x="0" y="0" class="label-sm" fill="#475569" font-size="9" letter-spacing="1">TILE COLORS (grid preview)</text>

    <rect x="0"   y="8" width="11" height="11" rx="1" fill="#1e293b" stroke="#334155" stroke-width="0.8"/>
    <text x="14"  y="18" class="label-sm" fill="#475569" font-size="8">empty</text>
    <rect x="55"  y="8" width="11" height="11" rx="1" fill="#334155"/>
    <text x="69"  y="18" class="label-sm" fill="#475569" font-size="8">wall</text>
    <rect x="100" y="8" width="11" height="11" rx="1" fill="#92400e"/>
    <text x="114" y="18" class="label-sm" fill="#475569" font-size="8">dest.</text>
    <rect x="148" y="8" width="11" height="11" rx="1" fill="#fbbf24"/>
    <text x="162" y="18" class="label-sm" fill="#475569" font-size="8">flag</text>
    <rect x="192" y="8" width="11" height="11" rx="1" fill="#fde68a"/>
    <text x="206" y="18" class="label-sm" fill="#475569" font-size="8">flag_unl</text>
    <rect x="250" y="8" width="11" height="11" rx="1" fill="#1e3a5f"/>
    <text x="264" y="18" class="label-sm" fill="#475569" font-size="8">decor</text>

    <rect x="0"   y="26" width="11" height="11" rx="1" fill="#60a5fa"/>
    <text x="14"  y="36" class="label-sm" fill="#475569" font-size="8">generic</text>
    <rect x="55"  y="26" width="11" height="11" rx="1" fill="#34d399"/>
    <text x="69"  y="36" class="label-sm" fill="#475569" font-size="8">scout</text>
    <rect x="100" y="26" width="11" height="11" rx="1" fill="#a78bfa"/>
    <text x="114" y="36" class="label-sm" fill="#475569" font-size="8">harvest.</text>
    <rect x="160" y="26" width="11" height="11" rx="1" fill="#f87171"/>
    <text x="174" y="36" class="label-sm" fill="#475569" font-size="8">knight</text>
    <rect x="216" y="26" width="11" height="11" rx="1" fill="#fb923c"/>
    <text x="230" y="36" class="label-sm" fill="#475569" font-size="8">archer</text>
    <rect x="268" y="26" width="11" height="11" rx="1" fill="#cbd5e1" opacity="0.7"/>
    <text x="282" y="36" class="label-sm" fill="#475569" font-size="8">arrow</text>
  </g>

  <!-- ══════════════════════════════════════ -->
  <!-- IMPLEMENTATION NOTES                   -->
  <!-- ══════════════════════════════════════ -->
  <g transform="translate(650, 290)">
    <rect x="0" y="0" width="280" height="110" rx="4" fill="#080d18" stroke="#1e293b" stroke-width="1"/>
    <text x="10" y="16" class="label-sm" fill="#334155" font-size="9" letter-spacing="1">IMPLEMENTATION</text>

    <text x="10" y="34"  class="label-sm" fill="#475569" font-size="9">· Egocentric view, padded map (no OOB checks)</text>
    <text x="10" y="50"  class="label-sm" fill="#475569" font-size="9">· Extracted via jax.lax.dynamic_slice + vmap</text>
    <text x="10" y="66"  class="label-sm" fill="#475569" font-size="9">· No normalization — raw int8 values</text>
    <text x="10" y="82"  class="label-sm" fill="#475569" font-size="9">· JIT-compiled via JAX for parallel envs</text>
    <text x="10" y="98"  class="label-sm" fill="#475569" font-size="9">· View size configurable (default 11×11)</text>
  </g>

  <!-- ══════════════════════════════════════ -->
  <!-- TimeStep context                       -->
  <!-- ══════════════════════════════════════ -->
  <g transform="translate(650, 415)">
    <rect x="0" y="0" width="280" height="108" rx="4" fill="#080d18" stroke="#1e293b" stroke-width="1"/>
    <text x="10" y="16" class="label-sm" fill="#334155" font-size="9" letter-spacing="1">TIMESTEP FIELDS</text>

    <text x="10" y="34"  font-family="'Courier New', monospace" font-size="9" fill="#7dd3fc">obs</text>
    <text x="60" y="34"  class="label-sm" fill="#475569" font-size="8">(N, 11, 11, 4)  ← observation</text>
    <text x="10" y="50"  font-family="'Courier New', monospace" font-size="9" fill="#7dd3fc">time</text>
    <text x="60" y="50"  class="label-sm" fill="#475569" font-size="8">(N,)  step counter</text>
    <text x="10" y="66"  font-family="'Courier New', monospace" font-size="9" fill="#7dd3fc">reward</text>
    <text x="60" y="66"  class="label-sm" fill="#475569" font-size="8">(N,)  scalar reward</text>
    <text x="10" y="82"  font-family="'Courier New', monospace" font-size="9" fill="#7dd3fc">action_mask</text>
    <text x="95" y="82"  class="label-sm" fill="#475569" font-size="8">(N, A)  legal actions</text>
    <text x="10" y="98"  font-family="'Courier New', monospace" font-size="9" fill="#7dd3fc">terminated</text>
    <text x="90" y="98"  class="label-sm" fill="#475569" font-size="8">(N,)  done flags</text>
  </g>

  <!-- ══════════════════════════════════════ -->
  <!-- Bottom caption -->
  <!-- ══════════════════════════════════════ -->
  <line x1="30" y1="650" x2="930" y2="650" stroke="#0f172a" stroke-width="1"/>
  <text x="480" y="666" text-anchor="middle" class="label-sm" fill="#1e293b" font-size="9" letter-spacing="1">mapox · multi-agent jax environment · observation space reference</text>
</svg>
